<mxfile host="app.diagrams.net" modified="2024-04-17T07:42:50.318Z" agent="Mozilla/5.0 (Windows NT 10.0; Win64; x64) AppleWebKit/537.36 (KHTML, like Gecko) Chrome/123.0.0.0 Safari/537.36" version="24.2.5" etag="OGeR9ybo2LVkQK-10G2Q" type="github">
  <diagram name="第 1 页" id="x98o-KHnGINY39M97p-3">
    <mxGraphModel>
      <root>
        <mxCell id="0" />
        <mxCell id="1" parent="0" />
      </root>
    </mxGraphModel>
  </diagram>
</mxfile>
